<svg viewBox="0 0 595 28" width="100%" height="100%" xmlns="http://www.w3.org/2000/svg">
<path d="M0.398005 27V0.818181H17.7332V5.3821H5.93352V11.6207H16.5827V16.1847H5.93352V27H0.398005ZM26.3801 0.818181V27H20.8446V0.818181H26.3801ZM52.2216 0.818181V27H47.4403L36.0497 10.5213H35.858V27H30.3224V0.818181H35.1804L46.4815 17.2841H46.7116V0.818181H52.2216ZM78.0822 0.818181V27H73.301L61.9104 10.5213H61.7186V27H56.1831V0.818181H61.0411L72.3422 17.2841H72.5723V0.818181H78.0822ZM87.5793 0.818181V27H82.0438V0.818181H87.5793ZM105.725 8.34801C105.622 7.31676 105.184 6.51562 104.408 5.9446C103.632 5.37358 102.58 5.08807 101.25 5.08807C100.347 5.08807 99.5841 5.21591 98.9619 5.47159C98.3398 5.71875 97.8625 6.06392 97.5301 6.5071C97.2063 6.95028 97.0443 7.45312 97.0443 8.01562C97.0273 8.48438 97.1253 8.89347 97.3384 9.2429C97.56 9.59233 97.8625 9.89489 98.246 10.1506C98.6296 10.3977 99.0727 10.6151 99.5756 10.8026C100.078 10.9815 100.615 11.1349 101.186 11.2628L103.539 11.8253C104.681 12.081 105.729 12.4219 106.684 12.848C107.638 13.2741 108.465 13.7983 109.164 14.4205C109.863 15.0426 110.404 15.7756 110.787 16.6193C111.179 17.4631 111.38 18.4304 111.388 19.5213C111.38 21.1236 110.97 22.5128 110.161 23.6889C109.36 24.8565 108.201 25.7642 106.684 26.4119C105.175 27.0511 103.355 27.3707 101.225 27.3707C99.1111 27.3707 97.2702 27.0469 95.702 26.3991C94.1423 25.7514 92.9236 24.7926 92.0457 23.5227C91.1764 22.2443 90.7205 20.6634 90.6779 18.7798H96.0344C96.094 19.6577 96.3455 20.3906 96.7886 20.9787C97.2404 21.5582 97.8412 21.9972 98.5912 22.2955C99.3497 22.5852 100.206 22.7301 101.161 22.7301C102.098 22.7301 102.912 22.5937 103.603 22.321C104.301 22.0483 104.843 21.669 105.226 21.1832C105.61 20.6974 105.801 20.1392 105.801 19.5085C105.801 18.9205 105.627 18.4261 105.277 18.0256C104.936 17.625 104.434 17.2841 103.769 17.0028C103.113 16.7216 102.307 16.4659 101.353 16.2358L98.5017 15.5199C96.2943 14.983 94.5514 14.1435 93.273 13.0014C91.9946 11.8594 91.3597 10.321 91.3682 8.38636C91.3597 6.80114 91.7815 5.41619 92.6338 4.23153C93.4946 3.04687 94.675 2.12216 96.175 1.45739C97.675 0.792613 99.3796 0.460226 101.289 0.460226C103.232 0.460226 104.928 0.792613 106.377 1.45739C107.834 2.12216 108.968 3.04687 109.777 4.23153C110.587 5.41619 111.005 6.78835 111.03 8.34801H105.725ZM114.499 27V0.818181H120.035V11.6207H131.272V0.818181H136.795V27H131.272V16.1847H120.035V27H114.499ZM157.441 27H149.362V0.818181H157.799C160.339 0.818181 162.512 1.34233 164.319 2.39062C166.126 3.4304 167.511 4.92614 168.474 6.87784C169.437 8.82102 169.919 11.1477 169.919 13.858C169.919 16.5852 169.433 18.9332 168.461 20.902C167.49 22.8622 166.075 24.3707 164.217 25.4276C162.359 26.4759 160.1 27 157.441 27ZM152.532 24.1875H157.237C159.402 24.1875 161.196 23.7699 162.619 22.9347C164.042 22.0994 165.103 20.9105 165.802 19.3679C166.501 17.8253 166.85 15.9886 166.85 13.858C166.85 11.7443 166.505 9.92472 165.815 8.39915C165.125 6.86506 164.093 5.68892 162.721 4.87074C161.349 4.04403 159.64 3.63068 157.595 3.63068H152.532V24.1875ZM174.468 27H171.144L180.758 0.818181H184.031L193.644 27H190.32L182.497 4.96023H182.292L174.468 27ZM175.695 16.7727H189.093V19.5852H175.695V16.7727ZM192.62 3.63068V0.818181H212.256V3.63068H204.023V27H200.853V3.63068H192.62ZM214.553 27H211.229L220.843 0.818181H224.115L233.729 27H230.405L222.581 4.96023H222.377L214.553 27ZM215.78 16.7727H229.178V19.5852H215.78V16.7727ZM246.708 27V0.818181H262.509V3.63068H249.878V12.4773H261.691V15.2898H249.878V24.1875H262.714V27H246.708ZM288.68 9H285.509C285.322 8.08807 284.994 7.28693 284.525 6.59659C284.065 5.90625 283.502 5.3267 282.837 4.85795C282.181 4.38068 281.453 4.02273 280.651 3.78409C279.85 3.54545 279.015 3.42614 278.146 3.42614C276.56 3.42614 275.124 3.8267 273.837 4.62784C272.559 5.42898 271.541 6.60938 270.782 8.16903C270.032 9.72869 269.657 11.642 269.657 13.9091C269.657 16.1761 270.032 18.0895 270.782 19.6491C271.541 21.2088 272.559 22.3892 273.837 23.1903C275.124 23.9915 276.56 24.392 278.146 24.392C279.015 24.392 279.85 24.2727 280.651 24.0341C281.453 23.7955 282.181 23.4418 282.837 22.973C283.502 22.4957 284.065 21.9119 284.525 21.2216C284.994 20.5227 285.322 19.7216 285.509 18.8182H288.68C288.441 20.1562 288.007 21.3537 287.376 22.4105C286.745 23.4673 285.961 24.3665 285.024 25.108C284.086 25.8409 283.033 26.3991 281.866 26.7827C280.707 27.1662 279.467 27.358 278.146 27.358C275.913 27.358 273.927 26.8125 272.188 25.7216C270.45 24.6307 269.082 23.0795 268.085 21.0682C267.087 19.0568 266.589 16.6705 266.589 13.9091C266.589 11.1477 267.087 8.76136 268.085 6.75C269.082 4.73864 270.45 3.1875 272.188 2.09659C273.927 1.00568 275.913 0.460226 278.146 0.460226C279.467 0.460226 280.707 0.651988 281.866 1.03551C283.033 1.41903 284.086 1.98153 285.024 2.72301C285.961 3.45596 286.745 4.35085 287.376 5.40767C288.007 6.45596 288.441 7.65341 288.68 9ZM315.282 13.9091C315.282 16.6705 314.783 19.0568 313.786 21.0682C312.789 23.0795 311.421 24.6307 309.683 25.7216C307.944 26.8125 305.958 27.358 303.725 27.358C301.492 27.358 299.506 26.8125 297.768 25.7216C296.029 24.6307 294.661 23.0795 293.664 21.0682C292.667 19.0568 292.168 16.6705 292.168 13.9091C292.168 11.1477 292.667 8.76136 293.664 6.75C294.661 4.73864 296.029 3.1875 297.768 2.09659C299.506 1.00568 301.492 0.460226 303.725 0.460226C305.958 0.460226 307.944 1.00568 309.683 2.09659C311.421 3.1875 312.789 4.73864 313.786 6.75C314.783 8.76136 315.282 11.1477 315.282 13.9091ZM312.214 13.9091C312.214 11.642 311.834 9.72869 311.076 8.16903C310.326 6.60938 309.308 5.42898 308.021 4.62784C306.742 3.8267 305.31 3.42614 303.725 3.42614C302.14 3.42614 300.704 3.8267 299.417 4.62784C298.138 5.42898 297.12 6.60938 296.361 8.16903C295.611 9.72869 295.236 11.642 295.236 13.9091C295.236 16.1761 295.611 18.0895 296.361 19.6491C297.12 21.2088 298.138 22.3892 299.417 23.1903C300.704 23.9915 302.14 24.392 303.725 24.392C305.31 24.392 306.742 23.9915 308.021 23.1903C309.308 22.3892 310.326 21.2088 311.076 19.6491C311.834 18.0895 312.214 16.1761 312.214 13.9091ZM340.762 0.818181V27H337.694L323.427 6.44318H323.171V27H320.001V0.818181H323.069L337.387 21.4261H337.643V0.818181H340.762ZM368.585 13.9091C368.585 16.6705 368.087 19.0568 367.09 21.0682C366.092 23.0795 364.724 24.6307 362.986 25.7216C361.247 26.8125 359.261 27.358 357.028 27.358C354.796 27.358 352.81 26.8125 351.071 25.7216C349.332 24.6307 347.965 23.0795 346.967 21.0682C345.97 19.0568 345.472 16.6705 345.472 13.9091C345.472 11.1477 345.97 8.76136 346.967 6.75C347.965 4.73864 349.332 3.1875 351.071 2.09659C352.81 1.00568 354.796 0.460226 357.028 0.460226C359.261 0.460226 361.247 1.00568 362.986 2.09659C364.724 3.1875 366.092 4.73864 367.09 6.75C368.087 8.76136 368.585 11.1477 368.585 13.9091ZM365.517 13.9091C365.517 11.642 365.138 9.72869 364.379 8.16903C363.629 6.60938 362.611 5.42898 361.324 4.62784C360.046 3.8267 358.614 3.42614 357.028 3.42614C355.443 3.42614 354.007 3.8267 352.72 4.62784C351.442 5.42898 350.423 6.60938 349.665 8.16903C348.915 9.72869 348.54 11.642 348.54 13.9091C348.54 16.1761 348.915 18.0895 349.665 19.6491C350.423 21.2088 351.442 22.3892 352.72 23.1903C354.007 23.9915 355.443 24.392 357.028 24.392C358.614 24.392 360.046 23.9915 361.324 23.1903C362.611 22.3892 363.629 21.2088 364.379 19.6491C365.138 18.0895 365.517 16.1761 365.517 13.9091ZM373.304 0.818181H377.088L385.986 22.5511H386.293L395.191 0.818181H398.975V27H396.009V7.10795H395.753L387.571 27H384.708L376.526 7.10795H376.27V27H373.304V0.818181ZM402.47 0.818181H406.1L413.362 13.0398H413.668L420.93 0.818181H424.56L415.1 16.2102V27H411.93V16.2102L402.47 0.818181ZM435.67 5.3821V0.818181H457.173V5.3821H449.157V27H443.686V5.3821H435.67ZM460.102 27V0.818181H477.744V5.3821H465.637V11.6207H476.836V16.1847H465.637V22.4361H477.795V27H460.102ZM495.736 8.34801C495.634 7.31676 495.195 6.51562 494.419 5.9446C493.644 5.37358 492.591 5.08807 491.262 5.08807C490.358 5.08807 489.595 5.21591 488.973 5.47159C488.351 5.71875 487.874 6.06392 487.541 6.5071C487.218 6.95028 487.056 7.45312 487.056 8.01562C487.039 8.48438 487.137 8.89347 487.35 9.2429C487.571 9.59233 487.874 9.89489 488.257 10.1506C488.641 10.3977 489.084 10.6151 489.587 10.8026C490.09 10.9815 490.627 11.1349 491.198 11.2628L493.55 11.8253C494.692 12.081 495.74 12.4219 496.695 12.848C497.649 13.2741 498.476 13.7983 499.175 14.4205C499.874 15.0426 500.415 15.7756 500.799 16.6193C501.191 17.4631 501.391 18.4304 501.399 19.5213C501.391 21.1236 500.982 22.5128 500.172 23.6889C499.371 24.8565 498.212 25.7642 496.695 26.4119C495.186 27.0511 493.367 27.3707 491.236 27.3707C489.122 27.3707 487.282 27.0469 485.713 26.3991C484.154 25.7514 482.935 24.7926 482.057 23.5227C481.188 22.2443 480.732 20.6634 480.689 18.7798H486.046C486.105 19.6577 486.357 20.3906 486.8 20.9787C487.252 21.5582 487.853 21.9972 488.603 22.2955C489.361 22.5852 490.218 22.7301 491.172 22.7301C492.11 22.7301 492.924 22.5937 493.614 22.321C494.313 22.0483 494.854 21.669 495.237 21.1832C495.621 20.6974 495.813 20.1392 495.813 19.5085C495.813 18.9205 495.638 18.4261 495.289 18.0256C494.948 17.625 494.445 17.2841 493.78 17.0028C493.124 16.7216 492.318 16.4659 491.364 16.2358L488.513 15.5199C486.306 14.983 484.563 14.1435 483.284 13.0014C482.006 11.8594 481.371 10.321 481.38 8.38636C481.371 6.80114 481.793 5.41619 482.645 4.23153C483.506 3.04687 484.686 2.12216 486.186 1.45739C487.686 0.792613 489.391 0.460226 491.3 0.460226C493.243 0.460226 494.939 0.792613 496.388 1.45739C497.845 2.12216 498.979 3.04687 499.789 4.23153C500.598 5.41619 501.016 6.78835 501.041 8.34801H495.736ZM503.514 5.3821V0.818181H525.016V5.3821H517.001V27H511.529V5.3821H503.514ZM527.946 27V0.818181H538.429C540.355 0.818181 541.961 1.10369 543.248 1.67472C544.535 2.24574 545.502 3.03835 546.15 4.05256C546.798 5.05824 547.122 6.21733 547.122 7.52983C547.122 8.55256 546.917 9.4517 546.508 10.2273C546.099 10.9943 545.537 11.625 544.821 12.1193C544.113 12.6051 543.304 12.9503 542.392 13.1548V13.4105C543.389 13.4531 544.322 13.7344 545.191 14.2543C546.069 14.7741 546.781 15.5028 547.326 16.4403C547.872 17.3693 548.145 18.4773 548.145 19.7642C548.145 21.1534 547.799 22.3935 547.109 23.4844C546.427 24.5668 545.417 25.4233 544.079 26.054C542.741 26.6847 541.092 27 539.132 27H527.946ZM533.481 22.4744H537.994C539.537 22.4744 540.662 22.1804 541.369 21.5923C542.076 20.9957 542.43 20.2031 542.43 19.2145C542.43 18.4901 542.255 17.8509 541.906 17.2969C541.556 16.7429 541.058 16.3082 540.41 15.9929C539.771 15.6776 539.008 15.5199 538.122 15.5199H533.481V22.4744ZM533.481 11.7741H537.585C538.343 11.7741 539.017 11.642 539.605 11.3778C540.201 11.1051 540.67 10.7216 541.011 10.2273C541.36 9.73295 541.535 9.14062 541.535 8.45028C541.535 7.50426 541.199 6.74148 540.525 6.16193C539.86 5.58239 538.914 5.29261 537.687 5.29261H533.481V11.7741ZM551.134 27V0.818181H568.777V5.3821H556.67V11.6207H567.869V16.1847H556.67V22.4361H568.828V27H551.134ZM581.847 27H572.565V0.818181H581.923C584.557 0.818181 586.824 1.34233 588.725 2.39062C590.625 3.4304 592.087 4.92614 593.109 6.87784C594.141 8.82955 594.656 11.1648 594.656 13.8835C594.656 16.6108 594.141 18.9545 593.109 20.9148C592.087 22.875 590.617 24.3793 588.699 25.4276C586.79 26.4759 584.506 27 581.847 27ZM578.101 22.2571H581.617C583.253 22.2571 584.629 21.9673 585.746 21.3878C586.871 20.7997 587.715 19.892 588.277 18.6648C588.848 17.429 589.134 15.8352 589.134 13.8835C589.134 11.9489 588.848 10.3679 588.277 9.14062C587.715 7.91335 586.875 7.00994 585.759 6.4304C584.642 5.85085 583.266 5.56108 581.629 5.56108H578.101V22.2571Z" fill="white"/>
</svg>
